<svg xmlns="http://www.w3.org/2000/svg" viewBox="0 0 64 64">
  <rect width="64" height="64" rx="13" fill="#000000"/>
  <path fill="#ffffff" d="M44.7 35.3c-.1-7.1 5.8-10.5 6.1-10.7-3.3-4.9-8.5-5.5-10.4-5.6-4.4-.4-8.6 2.6-10.8 2.6-2.3 0-5.7-2.5-9.4-2.5-4.8.1-9.3 2.8-11.8 7.1-5 8.7-1.3 21.6 3.6 28.7 2.4 3.5 5.3 7.3 9 7.2 3.6-.1 5-2.3 9.4-2.3 4.4 0 5.6 2.3 9.4 2.3 3.9-.1 6.4-3.5 8.8-7 2.7-4 3.9-7.9 3.9-8.1-.1-.1-7.6-2.9-7.8-11.7zM37.6 14.5c2-2.4 3.3-5.8 3-9.2-2.9.1-6.4 1.9-8.4 4.3-1.9 2.1-3.5 5.5-3 8.8 3.2.3 6.5-1.6 8.4-3.9z"/>
</svg>
